<?xml version="1.0" encoding="UTF-8"?>
<!DOCTYPE svg PUBLIC "-//W3C//DTD SVG 1.1//EN" "http://www.w3.org/Graphics/SVG/1.1/DTD/svg11.dtd">
<!-- Creator: CorelDRAW -->
<svg xmlns="http://www.w3.org/2000/svg" xml:space="preserve" width="3.03769in" height="1.33281in" version="1.1" style="shape-rendering:geometricPrecision; text-rendering:geometricPrecision; image-rendering:optimizeQuality; fill-rule:evenodd; clip-rule:evenodd"
viewBox="0 0 375.62 164.8"
 xmlns:xlink="http://www.w3.org/1999/xlink"
 xmlns:xodm="http://www.corel.com/coreldraw/odm/2003">
 <defs>
  <style type="text/css">
   <![CDATA[
    .fil0 {fill:none}
    .fil3 {fill:#161616;fill-rule:nonzero}
    .fil2 {fill:#7B6AF7;fill-rule:nonzero}
    .fil1 {fill:#CDF501;fill-rule:nonzero}
   ]]>
  </style>
 </defs>
 <g id="Layer_x0020_1">
  <metadata id="CorelCorpID_0Corel-Layer"/>
  <rect class="fil0" x="-0" y="-0" width="375.62" height="164.8"/>
  <g id="_2541094858976">
   <polygon class="fil1" points="131.23,74.39 94.81,74.39 120.62,48.57 113.54,41.48 87.41,67.6 87.41,31.09 77.39,31.09 77.39,67.6 51.27,41.48 44.18,48.57 70,74.39 33.62,74.39 33.06,74.39 33.06,84.41 33.62,84.41 81.89,84.41 82.4,84.41 82.92,84.41 131.23,84.41 131.74,84.41 131.74,74.39 "/>
   <path class="fil2" d="M82.49 112.79l0 20.93c-24.32,0 -44.59,-17.27 -49.26,-40.21l29.97 0c10.65,0 19.28,8.63 19.28,19.28l0 -0.01z"/>
   <path class="fil2" d="M82.49 112.79l0 20.93c24.32,0 44.59,-17.27 49.26,-40.21l-29.97 0c-10.65,0 -19.28,8.63 -19.28,19.28l0 -0.01z"/>
  </g>
  <g id="_2541094861040">
   <path class="fil3" d="M164.35 85.05c0,-13.41 10.52,-24.07 24,-24.07 8.04,0 15.75,4.26 19.19,11.48l-8.18 4.61c-2.27,-3.99 -5.84,-6.53 -11.41,-6.53 -7.7,0 -13.27,6.12 -13.27,14.51 0,8.39 5.5,14.51 13.27,14.51 5.57,0 9.28,-2.54 11.41,-6.53l8.18 4.61c-3.44,7.22 -11.14,11.48 -19.19,11.48 -13.48,0 -24,-10.66 -24,-24.07l0 -0z"/>
   <path class="fil3" d="M232.83 89.86l0 -15.75 9.76 0 0 16.92c0,9.97 -5.91,18.01 -17.33,18.01 -11.35,0 -17.26,-8.04 -17.26,-18.01l0 -16.92 9.76 0 0 15.81c0,5.23 2.48,9.7 7.5,9.7 5.02,0 7.56,-4.47 7.56,-9.76l0 0z"/>
   <path class="fil3" d="M273.33 91.17c0,-4.81 -3.64,-8.8 -8.66,-8.8 -5.02,0 -8.66,3.99 -8.66,8.8 0,4.81 3.64,8.73 8.66,8.73 5.02,0 8.66,-3.92 8.66,-8.73zm-27.09 0l0 -32.73 9.76 0 0 17.88c2.54,-1.92 5.77,-3.16 9.21,-3.16 10.59,0 17.88,7.43 17.88,18.02 0,9.83 -7.91,17.95 -18.43,17.95 -10.59,0 -18.43,-7.63 -18.43,-17.95l0 0z"/>
   <polygon class="fil3" points="296.63,108.15 286.87,108.15 286.87,74.12 296.63,74.12 "/>
   <path class="fil3" d="M304.88 94.67l0 -12.31 -6.26 0 0 -8.25 6.26 0 0 -8.66 9.76 0 0 8.66 12.03 0 0 8.25 -12.03 0 0 12.03c0,3.78 2.27,5.98 5.84,5.98 2,0 4.54,-0.62 6.19,-1.65l0 8.73c-1.72,1.1 -4.68,1.65 -7.08,1.65 -9.83,0 -14.71,-5.91 -14.71,-14.44l0 0z"/>
   <path class="fil3" d="M330.59 102.86c0,-3.3 2.68,-6.05 6.05,-6.05 3.3,0 5.98,2.75 5.98,6.05 0,3.3 -2.68,6.05 -5.98,6.05 -3.37,0 -6.05,-2.75 -6.05,-6.05z"/>
   <path class="fil1" d="M287.23 71.68c0,-0.42 0,-0.79 0,-1.17 0,-1.82 -0,-3.63 0,-5.45 0.01,-4.69 3.74,-8.62 8.42,-8.89 0.4,-0.02 0.8,-0 1.23,-0 0.01,0.16 0.02,0.28 0.02,0.41 0,2.08 0.01,4.16 -0,6.24 -0.02,5.05 -4.36,9.15 -9.41,8.89 -0.07,-0 -0.13,-0.01 -0.26,-0.03z"/>
  </g>
 </g>
</svg>
